<svg width="34" height="80" viewBox="0 0 34 80" fill="none" xmlns="http://www.w3.org/2000/svg">
<g clip-path="url(#clip0)">
<circle cx="-6" cy="40" r="40" fill="white" fill-opacity="0.1"/>
<path d="M9 40L8.11612 39.1161C7.62796 39.6043 7.62796 40.3957 8.11612 40.8839L9 40ZM15.8839 34.8839C16.372 34.3957 16.372 33.6043 15.8839 33.1161C15.3957 32.628 14.6043 32.628 14.1161 33.1161L15.8839 34.8839ZM14.1161 46.8839C14.6043 47.372 15.3957 47.372 15.8839 46.8839C16.372 46.3957 16.372 45.6043 15.8839 45.1161L14.1161 46.8839ZM9.88388 40.8839L15.8839 34.8839L14.1161 33.1161L8.11612 39.1161L9.88388 40.8839ZM8.11612 40.8839L14.1161 46.8839L15.8839 45.1161L9.88388 39.1161L8.11612 40.8839Z" fill="white"/>
</g>
<defs>
<clipPath id="clip0">
<rect width="34" height="80" fill="white"/>
</clipPath>
</defs>
</svg>
