<svg width="32" height="31" viewBox="0 0 32 31" fill="none" xmlns="http://www.w3.org/2000/svg">
<mask id="mask0" mask-type="alpha" maskUnits="userSpaceOnUse" x="0" y="0" width="32" height="31">
<path d="M32 19.8428V3.90244C32 1.74718 30.2528 0 28.0976 0C23.8049 0 19.5122 0 15.2195 0C6.81399 0 0 6.814 0 15.2195C0 23.625 6.81399 30.439 15.2195 30.439C17.4212 30.439 19.6229 30.439 21.8247 30.439C27.6652 30.439 32 25.5049 32 19.8428Z" fill="#FF4468"/>
<path d="M32 19.8428V3.90244C32 1.74718 30.2528 0 28.0976 0C23.8049 0 19.5122 0 15.2195 0C6.81399 0 0 6.814 0 15.2195C0 23.625 6.81399 30.439 15.2195 30.439C17.4212 30.439 19.6229 30.439 21.8247 30.439C27.6652 30.439 32 25.5049 32 19.8428Z" fill="#28282B"/>
</mask>
<g mask="url(#mask0)">
<rect y="-0.000244141" width="32" height="30.439" fill="#B0B0B0"/>
<path d="M-13.0649 52.976C-1.58779 59.6023 13.0879 55.6699 19.7142 44.1928C26.3406 32.7157 22.4082 18.04 10.9311 11.4137C-0.546001 4.78737 -15.2217 8.71972 -21.848 20.1968C-28.4743 31.6739 -24.542 46.3497 -13.0649 52.976Z" fill="#868686"/>
<path d="M22.6674 29.7811C18.7813 30.9591 14.4359 30.5882 10.6418 28.3976C3.80684 24.4514 1.19139 16.0035 4.37838 8.96143C6.69678 9.45589 8.97823 10.317 11.1421 11.5663C17.9956 15.5231 22.0662 22.4489 22.6674 29.7811Z" fill="url(#paint0_linear)"/>
<path d="M22.6674 29.7811C18.7813 30.9591 14.4359 30.5882 10.6418 28.3976C3.80684 24.4514 1.19139 16.0035 4.37838 8.96143C6.69678 9.45589 8.97823 10.317 11.1421 11.5663C17.9956 15.5231 22.0662 22.4489 22.6674 29.7811Z" fill="#868686"/>
<path d="M21.5853 10.1054C17.6875 10.473 14.5678 11.7904 11.56 14.2985C10.9931 14.5376 11.0068 15.3434 11.5736 15.562L15.2204 16.9756C15.398 17.0439 15.5414 17.1873 15.6097 17.3649L17.0165 21.0049C17.2351 21.5785 18.0478 21.5922 18.2868 21.0254C20.7917 18.019 22.1117 14.9006 22.4868 11.0068C22.7122 10.44 22.1453 9.87318 21.5853 10.1054Z" fill="white"/>
</g>
<defs>
<linearGradient id="paint0_linear" x1="-20.5474" y1="20.0575" x2="19.6333" y2="43.2558" gradientUnits="userSpaceOnUse">
<stop stop-color="white"/>
<stop offset="1" stop-color="white" stop-opacity="0"/>
</linearGradient>
</defs>
</svg>
