<svg width="34" height="79" viewBox="0 0 34 79" fill="none" xmlns="http://www.w3.org/2000/svg">
<g clip-path="url(#clip0)">
<circle r="40" transform="matrix(-1 0 0 1 40 40)" fill="white" fill-opacity="0.1"/>
<path d="M25 40L25.8839 39.1161C26.372 39.6043 26.372 40.3957 25.8839 40.8839L25 40ZM18.1161 34.8839C17.628 34.3957 17.628 33.6043 18.1161 33.1161C18.6043 32.628 19.3957 32.628 19.8839 33.1161L18.1161 34.8839ZM19.8839 46.8839C19.3957 47.372 18.6043 47.372 18.1161 46.8839C17.628 46.3957 17.628 45.6043 18.1161 45.1161L19.8839 46.8839ZM24.1161 40.8839L18.1161 34.8839L19.8839 33.1161L25.8839 39.1161L24.1161 40.8839ZM25.8839 40.8839L19.8839 46.8839L18.1161 45.1161L24.1161 39.1161L25.8839 40.8839Z" fill="white"/>
</g>
<defs>
<clipPath id="clip0">
<rect width="34" height="79" fill="white"/>
</clipPath>
</defs>
</svg>
